# xmcd
#
# Track frame offsets:
#	150
#	28837
#	43939
#	59628
#	80285
#	111432
#	128997
#	152349
#	170898
#	185738
#
# Disc length: 2971 seconds
#
# Revision: 0
# Processed by: cddbd v1.5.1PL2 Copyright (c) Steve Scherf et al.
# Submitted via: dBpowerAMP V4.0
#
DISCID=900b990a
DTITLE=George - Live...on the road
DYEAR=1994
DGENRE=Country
TTITLE0=Medley 1
TTITLE1=Live...on the road
TTITLE2=Hey jack
TTITLE3=House of the rising sun
TTITLE4=Medley 2
TTITLE5=Knockin' on heaven's door
TTITLE6=Medley 3
TTITLE7=Desperado
TTITLE8=Help me make it througt the night
TTITLE9=Medley 4
EXTD=
EXTT0=
EXTT1=
EXTT2=
EXTT3=
EXTT4=
EXTT5=
EXTT6=
EXTT7=
EXTT8=
EXTT9=
PLAYORDER=
